<svg width="24" height="24" viewBox="0 0 24 24" fill="none" xmlns="http://www.w3.org/2000/svg">
<path d="M18.9 20.3L13.3 14.7C12.8 15.1 12.225 15.4167 11.575 15.65C10.925 15.8833 10.2333 16 9.5 16C7.68333 16 6.146 15.371 4.888 14.113C3.62933 12.8543 3 11.3167 3 9.5C3 7.68333 3.62933 6.14567 4.888 4.887C6.146 3.629 7.68333 3 9.5 3C11.3167 3 12.8543 3.629 14.113 4.887C15.371 6.14567 16 7.68333 16 9.5C16 10.2333 15.8833 10.925 15.65 11.575C15.4167 12.225 15.1 12.8 14.7 13.3L20.325 18.925C20.5083 19.1083 20.596 19.3373 20.588 19.612C20.5793 19.8873 20.4833 20.1167 20.3 20.3C20.1167 20.4833 19.8833 20.575 19.6 20.575C19.3167 20.575 19.0833 20.4833 18.9 20.3V20.3ZM9.5 14C10.75 14 11.8127 13.5627 12.688 12.688C13.5627 11.8127 14 10.75 14 9.5C14 8.25 13.5627 7.18733 12.688 6.312C11.8127 5.43733 10.75 5 9.5 5C8.25 5 7.18733 5.43733 6.312 6.312C5.43733 7.18733 5 8.25 5 9.5C5 10.75 5.43733 11.8127 6.312 12.688C7.18733 13.5627 8.25 14 9.5 14ZM9.5 12.5C9.21667 12.5 8.97933 12.404 8.788 12.212C8.596 12.0207 8.5 11.7833 8.5 11.5V10.5H7.475C7.19167 10.5 6.95833 10.404 6.775 10.212C6.59167 10.0207 6.5 9.78333 6.5 9.5C6.5 9.21667 6.59567 8.979 6.787 8.787C6.979 8.59567 7.21667 8.5 7.5 8.5H8.5V7.475C8.5 7.19167 8.596 6.95833 8.788 6.775C8.97933 6.59167 9.21667 6.5 9.5 6.5C9.78333 6.5 10.021 6.59567 10.213 6.787C10.4043 6.979 10.5 7.21667 10.5 7.5V8.5H11.525C11.8083 8.5 12.0417 8.59567 12.225 8.787C12.4083 8.979 12.5 9.21667 12.5 9.5C12.5 9.78333 12.4043 10.0207 12.213 10.212C12.021 10.404 11.7833 10.5 11.5 10.5H10.5V11.525C10.5 11.8083 10.4043 12.0417 10.213 12.225C10.021 12.4083 9.78333 12.5 9.5 12.5Z" fill="black"/>
</svg>
