<svg width="24" height="24" viewBox="0 0 24 24" fill="none" xmlns="http://www.w3.org/2000/svg">
<path d="M7.325 21C7.075 21 6.81233 20.95 6.537 20.85C6.26233 20.75 6.025 20.6333 5.825 20.5C5.69167 20.4167 5.55833 20.3127 5.425 20.188C5.29167 20.0627 5.15 20 5 20H4V18H5C5.25 18 5.51233 18.05 5.787 18.15C6.06233 18.25 6.3 18.3667 6.5 18.5C6.63333 18.5833 6.76667 18.6873 6.9 18.812C7.03333 18.9373 7.175 19 7.325 19C7.49167 19 7.64167 18.9373 7.775 18.812C7.90833 18.6873 8.04167 18.5833 8.175 18.5C8.375 18.35 8.61233 18.229 8.887 18.137C9.16233 18.0457 9.425 18 9.675 18C9.925 18 10.1877 18.0457 10.463 18.137C10.7377 18.229 10.975 18.35 11.175 18.5C11.3083 18.5833 11.4373 18.6873 11.562 18.812C11.6873 18.9373 11.8333 19 12 19C12.1667 19 12.3167 18.9373 12.45 18.812C12.5833 18.6873 12.7167 18.5833 12.85 18.5C13.05 18.35 13.2873 18.229 13.562 18.137C13.8373 18.0457 14.1 18 14.35 18C14.5833 18 14.8417 18.05 15.125 18.15C15.4083 18.25 15.65 18.3667 15.85 18.5C15.9833 18.5833 16.1167 18.6873 16.25 18.812C16.3833 18.9373 16.5333 19 16.7 19C16.8667 19 17.0123 18.9373 17.137 18.812C17.2623 18.6873 17.3917 18.5833 17.525 18.5C17.725 18.3667 17.9627 18.25 18.238 18.15C18.5127 18.05 18.775 18 19.025 18H20.025V20H19.025C18.8583 20 18.7083 20.0627 18.575 20.188C18.4417 20.3127 18.3083 20.4167 18.175 20.5C17.975 20.6333 17.7333 20.75 17.45 20.85C17.1667 20.95 16.9 21 16.65 21C16.4167 21 16.1627 20.95 15.888 20.85C15.6127 20.75 15.375 20.6333 15.175 20.5C15.0417 20.4167 14.9083 20.3127 14.775 20.188C14.6417 20.0627 14.4917 20 14.325 20C14.1583 20 14.0083 20.0627 13.875 20.188C13.7417 20.3127 13.6083 20.4167 13.475 20.5C13.275 20.65 13.0377 20.771 12.763 20.863C12.4877 20.9543 12.225 21 11.975 21C11.725 21 11.4627 20.9543 11.188 20.863C10.9127 20.771 10.675 20.65 10.475 20.5C10.3417 20.4167 10.2127 20.3127 10.088 20.188C9.96267 20.0627 9.81667 20 9.65 20C9.5 20 9.35433 20.0627 9.213 20.188C9.071 20.3127 8.93333 20.4167 8.8 20.5C8.61667 20.65 8.38333 20.771 8.1 20.863C7.81667 20.9543 7.55833 21 7.325 21V21ZM12 16.5C10.3167 16.5 8.89567 15.9207 7.737 14.762C6.579 13.604 6 12.1833 6 10.5V2.5H8.5V10.5C8.5 11.4833 8.83733 12.3127 9.512 12.988C10.1873 13.6627 11.0167 14 12 14C12.9833 14 13.8127 13.6627 14.488 12.988C15.1627 12.3127 15.5 11.4833 15.5 10.5V2.5H18V10.5C18 12.1833 17.4207 13.604 16.262 14.762C15.104 15.9207 13.6833 16.5 12 16.5Z" fill="black"/>
</svg>
