<svg width="24" height="24" viewBox="0 0 24 24" fill="none" xmlns="http://www.w3.org/2000/svg">
<path d="M10 8H18V6H10V8ZM10 11H18V9H10V11ZM10 14H15V12H10V14ZM7 8C7.28333 8 7.521 7.90433 7.713 7.713C7.90433 7.521 8 7.28333 8 7C8 6.71667 7.90433 6.479 7.713 6.287C7.521 6.09567 7.28333 6 7 6C6.71667 6 6.479 6.09567 6.287 6.287C6.09567 6.479 6 6.71667 6 7C6 7.28333 6.09567 7.521 6.287 7.713C6.479 7.90433 6.71667 8 7 8ZM7 11C7.28333 11 7.521 10.904 7.713 10.712C7.90433 10.5207 8 10.2833 8 10C8 9.71667 7.90433 9.479 7.713 9.287C7.521 9.09567 7.28333 9 7 9C6.71667 9 6.479 9.09567 6.287 9.287C6.09567 9.479 6 9.71667 6 10C6 10.2833 6.09567 10.5207 6.287 10.712C6.479 10.904 6.71667 11 7 11ZM7 14C7.28333 14 7.521 13.904 7.713 13.712C7.90433 13.5207 8 13.2833 8 13C8 12.7167 7.90433 12.479 7.713 12.287C7.521 12.0957 7.28333 12 7 12C6.71667 12 6.479 12.0957 6.287 12.287C6.09567 12.479 6 12.7167 6 13C6 13.2833 6.09567 13.5207 6.287 13.712C6.479 13.904 6.71667 14 7 14ZM2 22V4C2 3.45 2.196 2.979 2.588 2.587C2.97933 2.19567 3.45 2 4 2H20C20.55 2 21.021 2.19567 21.413 2.587C21.8043 2.979 22 3.45 22 4V16C22 16.55 21.8043 17.021 21.413 17.413C21.021 17.8043 20.55 18 20 18H6L2 22ZM4 17.175L5.175 16H20V4H4V17.175ZM4 4V17.175V4Z" fill="black"/>
</svg>
